<?xml version="1.0" encoding="utf-8"?>
<!DOCTYPE svg PUBLIC "-//W3C//DTD SVG 1.1//EN" "http://www.w3.org/Graphics/SVG/1.1/DTD/svg11.dtd">
<svg version="1.1" id="Layer_2_copy" xmlns="http://www.w3.org/2000/svg" xmlns:xlink="http://www.w3.org/1999/xlink" x="0px"
	 y="0px" width="1200px" height="1200px" viewBox="0 0 1200 1200" enable-background="new 0 0 1200 1200" xml:space="preserve">
<g>
	<path fill="#9900FF" d="M439.951,925.884c0,13.307-1.913,25.426-5.738,36.368c-3.822,10.943-9.238,20.276-16.249,28.001
		c-7.01,7.724-15.453,13.733-25.329,18.023c-9.878,4.289-20.767,6.437-32.66,6.437c-11.898,0-22.731-2.147-32.5-6.437
		c-9.772-4.29-18.161-10.3-25.171-18.023c-7.01-7.725-12.481-17.058-16.409-28.001C281.961,951.31,280,939.19,280,925.884
		c0-13.301,1.961-25.37,5.895-36.207c3.928-10.832,9.449-20.115,16.569-27.84c7.114-7.725,15.558-13.679,25.33-17.862
		c9.769-4.185,20.498-6.276,32.182-6.276c11.68,0,22.463,2.092,32.341,6.276c9.878,4.184,18.319,10.138,25.331,17.862
		c7.01,7.725,12.476,17.008,16.408,27.84C437.984,900.514,439.951,912.583,439.951,925.884z M400.701,925.884
		c0-16.736-1.934-29.981-9.798-39.748c-7.868-9.761-16.841-14.644-30.929-14.644c-14.087,0-23.064,4.883-30.928,14.644
		c-7.869,9.767-9.798,23.012-9.798,39.748c0,16.952,1.929,30.364,9.798,40.23c7.863,9.872,16.841,14.805,30.928,14.805
		c14.088,0,23.061-4.933,30.929-14.805C398.768,956.248,400.701,942.836,400.701,925.884z"/>
	<path fill="#9900FF" d="M639.951,925.884c0,13.307-1.913,25.426-5.738,36.368c-3.822,10.943-9.238,20.276-16.249,28.001
		c-7.01,7.724-15.453,13.733-25.329,18.023c-9.878,4.289-20.767,6.437-32.66,6.437c-11.898,0-22.731-2.147-32.5-6.437
		c-9.772-4.29-18.161-10.3-25.171-18.023c-7.011-7.725-12.481-17.058-16.409-28.001C481.961,951.31,480,939.19,480,925.884
		c0-13.301,1.961-25.37,5.895-36.207c3.928-10.832,9.449-20.115,16.568-27.84c7.114-7.725,15.559-13.679,25.33-17.862
		c9.769-4.185,20.498-6.276,32.182-6.276c11.68,0,22.463,2.092,32.341,6.276c9.878,4.184,18.319,10.138,25.331,17.862
		c7.01,7.725,12.476,17.008,16.408,27.84C637.984,900.514,639.951,912.583,639.951,925.884z M600.701,925.884
		c0-16.736-1.934-29.981-9.798-39.748c-7.868-9.761-16.841-14.644-30.929-14.644c-14.087,0-23.064,4.883-30.928,14.644
		c-7.869,9.767-9.799,23.012-9.799,39.748c0,16.952,1.93,30.364,9.799,40.23c7.863,9.872,16.841,14.805,30.928,14.805
		c14.088,0,23.061-4.933,30.929-14.805C598.768,956.248,600.701,942.836,600.701,925.884z"/>
	<path fill="#9900FF" d="M919.071,998.667v-82.082c0-11.37-0.915-21.83-2.735-31.38c-1.825-9.545-5.149-17.701-9.978-24.46
		c-4.827-6.759-11.48-12.014-19.954-15.771c-8.479-3.752-21.26-5.633-34.345-5.633c-5.149,0-10.249,0.538-15.288,1.609
		c-5.044,1.076-10.816,2.414-15.322,4.023s-8.584,3.379-12.229,5.311c-3.651,1.931-6.653,3.756-9.012,5.471
		c-4.938-4.933-11.104-8.9-18.506-11.908c-7.403-3.002-19.897-4.506-31.483-4.506c-13.518,0-28.341,0.966-40.461,2.896
		c-12.124,1.932-21.94,3.974-29.448,6.115v150.313c0,10.768,8.729,15.163,19.496,15.163c10.768,0,19.496-4.396,19.497-15.163h-0.05
		V875.389c2.574-0.428,6.437-0.966,11.586-1.609s11.866-0.965,16.161-0.965c12.014,0,23.221,3.917,27.621,11.747
		c4.396,7.835,6.598,20.548,6.598,38.139v75.967h-0.025c0,10.768,8.729,15.163,19.496,15.163c10.768,0,19.496-4.396,19.497-15.163
		h-0.024v-80.473c0-6.864-0.322-13.302-0.966-19.311c-0.644-6.005-1.825-11.692-3.54-17.059c2.786-1.931,5.97-3.912,11.552-5.954
		c5.577-2.036,13.476-3.057,19.702-3.057c12.229,0,22.487,3.917,26.781,11.747c4.29,7.835,6.438,20.548,6.438,38.139v75.967h-0.051
		c0,10.768,8.729,15.163,19.496,15.163C910.342,1013.83,919.07,1009.434,919.071,998.667z"/>
</g>
<path fill="#9900FF" d="M920,480c0,176.731-143.269,320-320,320c-176.73,0-320-143.269-320-320c0-176.73,143.27-320,320-320
	C776.731,160,920,303.27,920,480z M746.947,336.15c-39.25-37.929-91.438-57.049-146.947-57.049
	c-55.51,0-107.695,19.12-146.947,57.049c-39.25,37.928-60.867,88.355-60.867,141.997c0,54.277,22.572,98.081,65.273,126.678
	c7.083,4.743,14.72,8.998,22.851,12.783v21.059c0,10.768,8.729,15.163,19.496,15.163c10.768,0,19.496-4.396,19.497-15.163h-0.05
	v-7.459c19.007,4.772,39.774,7.659,61.966,8.688v38.771h-0.025c0,10.77,8.73,15.163,19.496,15.163
	c10.771,0,19.496-4.398,19.497-15.163h-0.024v-38.834c21.433-1.071,41.523-3.885,59.967-8.467v7.301h-0.051
	c0,10.768,8.729,15.163,19.496,15.163c10.768,0,19.496-4.396,19.497-15.163v-20.771c8.364-3.856,16.21-8.206,23.473-13.07
	c42.702-28.597,65.272-72.401,65.271-126.678C807.816,424.508,786.202,374.08,746.947,336.15z M759.214,511.81
	c-2.222,1.239-4.522,2.383-6.912,3.421c-9.878,4.289-20.767,6.437-32.659,6.437c-11.898,0-22.732-2.147-32.5-6.437
	c-9.773-4.29-18.162-10.3-25.172-18.023c-7.01-7.725-12.48-17.058-16.408-28.001c-3.934-10.942-5.895-23.062-5.895-36.368
	c0-13.301,1.961-25.37,5.895-36.207c3.928-10.832,9.448-20.115,16.568-27.84c7.113-7.725,15.558-13.679,25.33-17.862
	c2.601-1.114,5.274-2.069,8.011-2.886C667.87,328.675,634.77,318.212,600,318.212c-35.623,0-68.606,11.109-95.45,29.925
	c2.641,0.795,5.225,1.723,7.747,2.792c9.878,4.184,18.319,10.138,25.331,17.862c7.01,7.725,12.476,17.008,16.408,27.84
	c3.93,10.837,5.896,22.906,5.896,36.207c0,13.307-1.913,25.426-5.738,36.368c-3.822,10.943-9.238,20.276-16.249,28.001
	c-7.01,7.724-15.453,13.733-25.33,18.023c-9.877,4.289-20.766,6.437-32.658,6.437c-11.899,0-22.732-2.147-32.5-6.437
	c-2.293-1.006-4.501-2.115-6.641-3.311c6.263,24.94,20.234,45.864,40.844,59.667c28.088,18.81,67.791,29.718,118.336,29.719
	c50.551,0,90.258-10.908,118.348-29.718C738.983,557.765,752.966,536.801,759.214,511.81z M742.275,409.776
	c-7.663-0.001-14.867-3.089-20.286-8.696c-5.418-5.607-8.149-13.062-8.149-20.992c0-0.443,0.012-0.885,0.028-1.325
	c-10.867,1.204-18.425,5.974-25.154,14.327c-7.869,9.767-9.798,23.012-9.798,39.748c0,16.952,1.929,30.364,9.798,40.23
	c7.863,9.872,16.841,14.805,30.929,14.805s23.06-4.933,30.928-14.805c7.864-9.866,9.799-23.278,9.799-40.23
	c0-10.901-0.834-20.311-3.579-28.254C752.96,407.995,748.031,409.775,742.275,409.776z M502.275,409.776
	c-7.663-0.001-14.867-3.089-20.286-8.696c-5.418-5.607-8.149-13.062-8.149-20.992c0-0.431,0.012-0.859,0.027-1.287
	c-10.697,1.262-18.175,6.017-24.84,14.289c-7.869,9.767-9.797,23.012-9.797,39.748c0,16.952,1.928,30.364,9.797,40.23
	c7.863,9.872,16.842,14.805,30.93,14.805c14.087,0,23.059-4.933,30.928-14.805c7.863-9.866,9.798-23.278,9.798-40.23
	c0-11-0.849-20.482-3.654-28.469C513.165,407.92,508.151,409.775,502.275,409.776z M412.102,638.209
	c-7.796-0.133-15.074,2.777-20.492,8.196c-5.482,5.482-7.628,12.188-6.203,19.39c1.187,5.996,4.983,12.157,10.812,17.986
	c5.828,5.829,11.99,9.626,17.986,10.812c7.203,1.425,13.906-0.721,19.39-6.203c5.419-5.419,8.33-12.695,8.196-20.493
	c-0.135-7.796-3.475-14.999-9.082-20.606S419.898,638.343,412.102,638.209z M787.897,321.79c7.797,0.134,15.074-2.777,20.493-8.195
	c5.482-5.483,7.627-12.188,6.203-19.39c-1.187-5.996-4.983-12.158-10.812-17.986c-5.828-5.829-11.99-9.627-17.986-10.812
	c-7.203-1.426-13.907,0.721-19.39,6.203c-5.419,5.418-8.33,12.695-8.196,20.492s3.475,15,9.082,20.607
	S780.102,321.656,787.897,321.79z M767.291,647.291c-5.607,5.607-8.947,12.811-9.082,20.606c-0.134,7.798,2.777,15.074,8.196,20.493
	c5.483,5.482,12.187,7.628,19.39,6.203c5.996-1.187,12.158-4.983,17.986-10.812c5.829-5.829,9.626-11.99,10.812-17.986
	c1.425-7.202-0.721-13.907-6.203-19.39c-5.418-5.419-12.696-8.329-20.492-8.196C780.102,638.343,772.898,641.684,767.291,647.291z
	 M432.709,312.709c5.607-5.607,8.948-12.811,9.082-20.607s-2.777-15.074-8.196-20.492c-5.482-5.482-12.187-7.629-19.39-6.203
	c-5.996,1.186-12.158,4.983-17.986,10.812c-5.829,5.828-9.626,11.99-10.812,17.986c-1.424,7.201,0.721,13.906,6.203,19.39
	c5.419,5.418,12.696,8.329,20.493,8.195C419.898,321.656,427.102,318.316,432.709,312.709z M641.966,724.265
	c-4.067,6.652-5.251,14.4-3.33,21.819c1.944,7.505,6.637,12.755,13.567,15.18c5.767,2.018,13.004,1.87,20.983-0.196
	s14.376-5.451,18.441-10.019c4.881-5.483,6.432-12.351,4.488-19.856c-1.923-7.418-6.718-13.619-13.506-17.458
	c-6.786-3.837-14.689-4.611-22.367-2.623C652.568,713.1,646.035,717.613,641.966,724.265z M558.247,236.043
	c4.069-6.652,5.253-14.4,3.332-21.819c-1.946-7.506-6.638-12.755-13.566-15.18c-5.769-2.019-13.005-1.872-20.983,0.196
	c-7.98,2.067-14.379,5.453-18.442,10.018c-4.881,5.484-6.431,12.352-4.488,19.857c1.923,7.418,6.718,13.618,13.506,17.457
	c6.786,3.839,14.689,4.613,22.365,2.625C547.647,247.207,554.178,242.694,558.247,236.043z M539.969,711.111
	c-7.676-1.988-15.578-1.214-22.365,2.623c-6.788,3.839-11.582,10.04-13.506,17.458c-1.943,7.505-0.393,14.372,4.488,19.856
	c4.064,4.566,10.461,7.952,18.441,10.019s15.215,2.214,20.984,0.196c6.93-2.425,11.621-7.675,13.566-15.18
	c1.922-7.42,0.738-15.167-3.331-21.82C554.178,717.613,547.646,713.1,539.969,711.111z M660.243,249.196
	c7.677,1.989,15.579,1.214,22.366-2.624c6.789-3.839,11.584-10.039,13.506-17.457c1.943-7.506,0.393-14.373-4.488-19.857
	c-4.064-4.565-10.463-7.951-18.441-10.018c-7.979-2.067-15.216-2.215-20.984-0.196c-6.93,2.425-11.622,7.674-13.566,15.18
	c-1.922,7.419-0.738,15.167,3.331,21.819C646.035,242.694,652.567,247.207,660.243,249.196z M355.996,522.013
	c-6.652-4.068-14.4-5.251-21.818-3.329c-7.506,1.944-12.754,6.635-15.18,13.566c-2.019,5.768-1.871,13.003,0.196,20.983
	c2.067,7.979,5.452,14.377,10.018,18.44c5.485,4.883,12.352,6.432,19.857,4.489c7.418-1.923,13.619-6.718,17.457-13.507
	c3.839-6.785,4.612-14.688,2.624-22.365C367.16,532.615,362.647,526.082,355.996,522.013z M844.219,438.295
	c6.651,4.068,14.399,5.252,21.816,3.33c7.508-1.945,12.758-6.637,15.182-13.565c2.018-5.769,1.87-13.005-0.196-20.984
	s-5.452-14.378-10.02-18.441c-5.484-4.881-12.35-6.432-19.855-4.487c-7.42,1.922-13.618,6.717-17.458,13.504
	c-3.837,6.787-4.611,14.69-2.622,22.367C833.053,427.693,837.565,434.225,844.219,438.295z M369.148,420.017
	c1.988-7.676,1.215-15.579-2.623-22.366c-3.84-6.787-10.039-11.582-17.457-13.506c-7.508-1.943-14.373-0.393-19.857,4.488
	c-4.566,4.064-7.951,10.461-10.019,18.441c-2.067,7.979-2.214,15.216-0.196,20.984c2.425,6.93,7.674,11.622,15.179,13.566
	c7.42,1.921,15.167,0.737,21.82-3.331C362.646,434.226,367.159,427.692,369.148,420.017z M831.062,540.291
	c-1.986,7.677-1.213,15.578,2.625,22.365c3.84,6.788,10.037,11.585,17.457,13.505c7.506,1.944,14.371,0.394,19.855-4.487
	c4.568-4.063,7.953-10.463,10.02-18.442c2.066-7.979,2.215-15.214,0.197-20.983c-2.426-6.93-7.674-11.622-15.182-13.566
	c-7.418-1.921-15.166-0.738-21.818,3.331S833.053,532.615,831.062,540.291z"/>
</svg>
