<?xml version="1.0" encoding="utf-8"?>
<!-- Generator: Adobe Illustrator 15.0.0, SVG Export Plug-In . SVG Version: 6.00 Build 0)  -->
<!DOCTYPE svg PUBLIC "-//W3C//DTD SVG 1.1//EN" "http://www.w3.org/Graphics/SVG/1.1/DTD/svg11.dtd">
<svg version="1.1" id="Layer_2_copy" xmlns="http://www.w3.org/2000/svg" xmlns:xlink="http://www.w3.org/1999/xlink" x="0px"
	 y="0px" width="16px" height="16px" viewBox="0 0 16 16" enable-background="new 0 0 16 16" xml:space="preserve">
<path d="M16,8c0,4.418-3.582,8-8,8s-8-3.582-8-8s3.582-8,8-8S16,3.582,16,8z M11.674,4.404C10.693,3.456,9.388,2.979,8,2.979
	S5.308,3.456,4.326,4.404c-0.981,0.947-1.521,2.209-1.521,3.55c0,1.356,0.564,2.452,1.632,3.167
	c0.178,0.117,0.368,0.225,0.571,0.318v0.526c0,0.271,0.218,0.379,0.487,0.379c0.269,0,0.487-0.108,0.487-0.379H5.981v-0.187
	c0.475,0.119,0.993,0.19,1.549,0.217v0.97l0,0c0,0.271,0.218,0.379,0.486,0.379c0.271,0,0.488-0.11,0.488-0.379H8.504v-0.971
	c0.536-0.027,1.038-0.099,1.499-0.212v0.183h-0.001c0,0.271,0.218,0.379,0.487,0.379c0.269,0,0.486-0.108,0.486-0.379v-0.521
	c0.209-0.096,0.405-0.204,0.587-0.325c1.067-0.716,1.633-1.812,1.633-3.167C13.195,6.613,12.655,5.352,11.674,4.404z M11.98,8.795
	c-0.057,0.031-0.113,0.061-0.174,0.086c-0.247,0.107-0.52,0.161-0.815,0.161c-0.298,0-0.568-0.054-0.812-0.161
	S9.725,8.623,9.549,8.43C9.374,8.236,9.237,8.004,9.139,7.73C9.041,7.457,8.993,7.154,8.993,6.82c0-0.332,0.049-0.633,0.146-0.904
	c0.1-0.271,0.236-0.503,0.415-0.695c0.179-0.193,0.39-0.343,0.633-0.447c0.065-0.027,0.133-0.051,0.2-0.071
	C9.697,4.218,8.869,3.956,8,3.956c-0.891,0-1.715,0.278-2.386,0.749c0.065,0.02,0.13,0.043,0.193,0.07
	c0.247,0.104,0.458,0.252,0.634,0.445c0.175,0.193,0.312,0.426,0.409,0.696C6.949,6.188,6.998,6.49,6.998,6.822
	c0,0.333-0.047,0.636-0.143,0.908C6.759,8.005,6.624,8.238,6.449,8.432c-0.175,0.192-0.386,0.342-0.633,0.45S5.297,9.043,5,9.043
	c-0.298,0-0.568-0.054-0.812-0.161C4.13,8.857,4.075,8.829,4.022,8.799c0.155,0.624,0.506,1.146,1.021,1.492
	c0.702,0.471,1.695,0.742,2.958,0.742s2.256-0.271,2.959-0.742C11.475,9.943,11.824,9.42,11.98,8.795z M11.557,6.244
	c-0.19,0-0.371-0.077-0.507-0.217c-0.136-0.141-0.204-0.327-0.204-0.525c0-0.011,0.001-0.021,0.001-0.033
	c-0.271,0.03-0.461,0.149-0.629,0.358C10.022,6.07,9.973,6.402,9.973,6.82c0,0.425,0.05,0.76,0.245,1.007
	c0.196,0.247,0.421,0.37,0.773,0.37c0.352,0,0.576-0.124,0.772-0.37c0.196-0.247,0.244-0.582,0.244-1.007
	c0-0.271-0.021-0.508-0.089-0.705C11.824,6.2,11.701,6.244,11.557,6.244z M5.557,6.244c-0.19,0-0.372-0.077-0.507-0.217
	C4.914,5.887,4.846,5.7,4.846,5.502c0-0.011,0-0.021,0-0.032C4.578,5.501,4.392,5.62,4.225,5.827C4.028,6.07,3.98,6.402,3.98,6.82
	c0,0.425,0.048,0.76,0.244,1.007c0.197,0.247,0.422,0.37,0.773,0.37s0.576-0.125,0.773-0.37C5.968,7.581,6.016,7.245,6.016,6.82
	c0-0.274-0.021-0.512-0.091-0.711C5.829,6.198,5.704,6.244,5.557,6.244z M3.303,11.955c-0.194-0.003-0.377,0.068-0.513,0.205
	c-0.137,0.137-0.19,0.305-0.155,0.484c0.03,0.149,0.125,0.305,0.271,0.449c0.146,0.146,0.3,0.24,0.45,0.271
	c0.18,0.035,0.348-0.02,0.484-0.155c0.136-0.136,0.208-0.317,0.205-0.513c-0.003-0.194-0.087-0.375-0.227-0.516
	C3.678,12.042,3.498,11.959,3.303,11.955z M12.697,4.045c0.194,0.003,0.377-0.068,0.513-0.205c0.137-0.137,0.19-0.305,0.155-0.484
	c-0.03-0.15-0.125-0.305-0.271-0.45c-0.146-0.146-0.3-0.24-0.45-0.271C12.464,2.6,12.296,2.652,12.16,2.79
	c-0.136,0.136-0.208,0.317-0.205,0.513c0.004,0.195,0.087,0.375,0.228,0.516C12.322,3.958,12.503,4.042,12.697,4.045z
	 M12.183,12.184c-0.141,0.14-0.224,0.319-0.228,0.515c-0.003,0.194,0.069,0.377,0.205,0.513c0.137,0.137,0.305,0.189,0.483,0.155
	c0.15-0.03,0.306-0.125,0.45-0.271c0.146-0.146,0.24-0.301,0.271-0.451c0.035-0.18-0.02-0.348-0.155-0.483s-0.317-0.208-0.513-0.205
	C12.503,11.959,12.322,12.042,12.183,12.184z M3.818,3.818c0.14-0.141,0.224-0.32,0.227-0.516S3.976,2.926,3.84,2.79
	C3.703,2.652,3.535,2.6,3.355,2.635c-0.15,0.03-0.305,0.125-0.45,0.27c-0.146,0.146-0.24,0.301-0.271,0.451
	C2.599,3.535,2.653,3.703,2.79,3.84c0.136,0.135,0.317,0.208,0.513,0.205S3.678,3.958,3.818,3.818z M9.049,14.105
	c-0.102,0.166-0.131,0.36-0.083,0.547c0.049,0.188,0.166,0.317,0.339,0.379c0.146,0.051,0.325,0.047,0.525-0.006
	c0.199-0.051,0.359-0.135,0.461-0.25c0.122-0.137,0.16-0.309,0.112-0.496c-0.05-0.186-0.168-0.34-0.338-0.437
	c-0.171-0.097-0.367-0.114-0.561-0.065C9.314,13.827,9.15,13.939,9.049,14.105z M6.956,1.9c0.102-0.166,0.131-0.359,0.083-0.545
	C6.99,1.168,6.873,1.037,6.7,0.977C6.556,0.927,6.375,0.93,6.176,0.982c-0.2,0.052-0.358,0.136-0.461,0.25
	C5.593,1.369,5.554,1.541,5.604,1.729c0.048,0.186,0.168,0.34,0.337,0.437C6.11,2.262,6.307,2.281,6.499,2.23S6.854,2.066,6.956,1.9
	z M6.499,13.777c-0.192-0.049-0.389-0.03-0.559,0.065c-0.169,0.097-0.29,0.251-0.338,0.438c-0.049,0.188-0.01,0.358,0.112,0.495
	c0.103,0.115,0.261,0.199,0.461,0.25c0.199,0.053,0.38,0.057,0.524,0.006c0.173-0.061,0.291-0.191,0.339-0.379
	c0.048-0.187,0.018-0.381-0.083-0.547C6.854,13.939,6.691,13.827,6.499,13.777z M9.506,2.23c0.192,0.049,0.391,0.029,0.561-0.066
	s0.289-0.251,0.338-0.436c0.048-0.188,0.01-0.359-0.112-0.498C10.19,1.117,10.03,1.032,9.831,0.98
	C9.631,0.93,9.45,0.926,9.306,0.977c-0.173,0.061-0.29,0.191-0.339,0.379C8.919,1.541,8.948,1.734,9.05,1.9S9.314,2.18,9.506,2.23z
	 M1.9,9.051C1.733,8.948,1.54,8.919,1.355,8.967c-0.188,0.049-0.319,0.166-0.38,0.34C0.925,9.451,0.929,9.631,0.981,9.831
	c0.052,0.198,0.136,0.358,0.25,0.461c0.137,0.122,0.309,0.161,0.495,0.112s0.342-0.168,0.438-0.338s0.115-0.367,0.064-0.561
	C2.179,9.314,2.066,9.152,1.9,9.051z M14.105,6.958c0.166,0.103,0.359,0.131,0.545,0.083c0.188-0.048,0.318-0.166,0.38-0.339
	c0.051-0.146,0.047-0.325-0.005-0.524c-0.053-0.199-0.137-0.359-0.25-0.462c-0.139-0.122-0.311-0.161-0.497-0.112
	s-0.34,0.168-0.438,0.338c-0.096,0.17-0.115,0.367-0.064,0.56C13.826,6.693,13.939,6.855,14.105,6.958z M2.229,6.5
	C2.279,6.309,2.26,6.109,2.164,5.941C2.068,5.771,1.913,5.65,1.727,5.604C1.539,5.555,1.368,5.593,1.231,5.715
	c-0.114,0.102-0.199,0.262-0.25,0.461c-0.053,0.2-0.057,0.381-0.006,0.525c0.062,0.173,0.192,0.291,0.38,0.339
	C1.541,7.088,1.734,7.059,1.9,6.957S2.179,6.691,2.229,6.5z M13.776,9.507c-0.051,0.192-0.03,0.39,0.064,0.56
	c0.097,0.17,0.251,0.291,0.438,0.338c0.188,0.05,0.358,0.011,0.497-0.111c0.113-0.102,0.197-0.262,0.25-0.461
	c0.052-0.2,0.056-0.381,0.005-0.523c-0.062-0.175-0.191-0.291-0.38-0.341c-0.186-0.048-0.379-0.019-0.545,0.085
	C13.939,9.152,13.826,9.314,13.776,9.507z"/>
</svg>
